<?xml version="1.0" encoding="utf-8"?><svg viewBox="0 0 52 52" xmlns="http://www.w3.org/2000/svg" xmlns:xlink="http://www.w3.org/1999/xlink"><style>:root>svg{display:none}:root>svg:target{display:block}</style><svg fill="none" viewBox="0 0 52 52" id="Big_icon_camera_inactive" xmlns="http://www.w3.org/2000/svg"><circle cx="26" cy="26" r="26" fill="#EF3651"/><path d="M26 29.467a3.467 3.467 0 100-6.934 3.467 3.467 0 000 6.934z" fill="#F7F7F7"/><path d="M22.75 15.167l-1.983 2.166h-3.434a2.173 2.173 0 00-2.166 2.167v13c0 1.192.975 2.167 2.166 2.167h17.334a2.173 2.173 0 002.166-2.167v-13a2.173 2.173 0 00-2.166-2.167h-3.434l-1.983-2.166h-6.5zM26 31.417A5.419 5.419 0 0120.583 26 5.419 5.419 0 0126 20.583 5.419 5.419 0 0131.417 26 5.419 5.419 0 0126 31.417z" fill="#F7F7F7"/></svg><svg fill="none" viewBox="0 0 52 52" id="Big_icon_camera_pressed" xmlns="http://www.w3.org/2000/svg"><circle opacity=".9" cx="26" cy="26" r="26" fill="#EF3651"/><path d="M26 29.467a3.467 3.467 0 100-6.934 3.467 3.467 0 000 6.934z" fill="#F7F7F7"/><path d="M22.75 15.167l-1.983 2.166h-3.434a2.173 2.173 0 00-2.166 2.167v13c0 1.192.975 2.167 2.166 2.167h17.334a2.173 2.173 0 002.166-2.167v-13a2.173 2.173 0 00-2.166-2.167h-3.434l-1.983-2.166h-6.5zM26 31.417A5.419 5.419 0 0120.583 26 5.419 5.419 0 0126 20.583 5.419 5.419 0 0131.417 26 5.419 5.419 0 0126 31.417z" fill="#F7F7F7"/></svg><svg fill="none" viewBox="0 0 52 52" id="Big_icon_search" xmlns="http://www.w3.org/2000/svg"><circle opacity=".9" cx="26" cy="26" r="26" fill="#EF3651"/><path d="M29.5 28h-.79l-.28-.27A6.471 6.471 0 0030 23.5a6.5 6.5 0 10-6.5 6.5c1.61 0 3.09-.59 4.23-1.57l.27.28v.79l5 4.99L34.49 33l-4.99-5zm-6 0c-2.49 0-4.5-2.01-4.5-4.5s2.01-4.5 4.5-4.5 4.5 2.01 4.5 4.5-2.01 4.5-4.5 4.5z" fill="#F7F7F7"/></svg><svg fill="none" viewBox="0 0 52 52" id="Big_icon_search_inactive" xmlns="http://www.w3.org/2000/svg"><circle cx="26" cy="26" r="26" fill="#EF3651"/><path d="M29.5 28h-.79l-.28-.27A6.471 6.471 0 0030 23.5a6.5 6.5 0 10-6.5 6.5c1.61 0 3.09-.59 4.23-1.57l.27.28v.79l5 4.99L34.49 33l-4.99-5zm-6 0c-2.49 0-4.5-2.01-4.5-4.5s2.01-4.5 4.5-4.5 4.5 2.01 4.5 4.5-2.01 4.5-4.5 4.5z" fill="#F7F7F7"/></svg><svg fill="none" viewBox="0 0 44 44" id="activated_bag_icon" xmlns="http://www.w3.org/2000/svg"><g filter="url(#efilter0_d_283:3574)"><circle cx="22" cy="18" r="18" fill="#2A2C36"/></g><path d="M28.375 23.048l-1.042-9.8c0-.616-.477-1.115-1.066-1.115h-8.534c-.589 0-1.066.5-1.066 1.116l-1.042 9.8a1.185 1.185 0 00-.025.236c0 .616.477 1.115 1.067 1.115h10.666c.59 0 1.067-.499 1.067-1.115 0-.082-.01-.16-.025-.237zm-3.708-8.178v.609c0 1.537-1.197 2.788-2.667 2.788-1.47 0-2.667-1.251-2.667-2.788v-.61a.832.832 0 01-.533-.784c0-.462.358-.837.8-.837.442 0 .8.375.8.837v1.394c0 .922.718 1.672 1.6 1.672.882 0 1.6-.75 1.6-1.672v-1.394c0-.462.358-.837.8-.837.442 0 .8.375.8.837 0 .363-.223.67-.533.785z" fill="#EF3651"/><defs><filter id="efilter0_d_283:3574" x="0" y="0" width="44" height="44" filterUnits="userSpaceOnUse" color-interpolation-filters="sRGB"><feFlood flood-opacity="0" result="BackgroundImageFix"/><feColorMatrix in="SourceAlpha" values="0 0 0 0 0 0 0 0 0 0 0 0 0 0 0 0 0 0 127 0" result="hardAlpha"/><feOffset dy="4"/><feGaussianBlur stdDeviation="2"/><feColorMatrix values="0 0 0 0 0 0 0 0 0 0 0 0 0 0 0 0 0 0 0.08 0"/><feBlend in2="BackgroundImageFix" result="effect1_dropShadow_283:3574"/><feBlend in="SourceGraphic" in2="effect1_dropShadow_283:3574" result="shape"/></filter></defs></svg><svg fill="none" viewBox="0 0 52 52" id="activated_icon_favorites_activated" xmlns="http://www.w3.org/2000/svg"><g filter="url(#ffilter0_d_25:194)"><circle cx="26" cy="25" r="18" fill="#2A2C36"/></g><path fill-rule="evenodd" clip-rule="evenodd" d="M25.54 31l-.949-.863C21.223 27.083 19 25.069 19 22.597A3.562 3.562 0 0122.597 19c1.138 0 2.23.53 2.942 1.367A3.916 3.916 0 0128.483 19a3.562 3.562 0 013.597 3.597c0 2.472-2.223 4.486-5.591 7.546L25.54 31z" fill="#EF3651"/><defs><filter id="ffilter0_d_25:194" x="0" y="0" width="52" height="52" filterUnits="userSpaceOnUse" color-interpolation-filters="sRGB"><feFlood flood-opacity="0" result="BackgroundImageFix"/><feColorMatrix in="SourceAlpha" values="0 0 0 0 0 0 0 0 0 0 0 0 0 0 0 0 0 0 127 0" result="hardAlpha"/><feOffset dy="1"/><feGaussianBlur stdDeviation="4"/><feColorMatrix values="0 0 0 0 0.0416667 0 0 0 0 0.0416667 0 0 0 0 0.0416667 0 0 0 0.26 0"/><feBlend in2="BackgroundImageFix" result="effect1_dropShadow_25:194"/><feBlend in="SourceGraphic" in2="effect1_dropShadow_25:194" result="shape"/></filter></defs></svg><svg fill="none" viewBox="0 0 26 26" id="baseline-photo_camera-24px2" xmlns="http://www.w3.org/2000/svg"><path d="M13 16.467a3.467 3.467 0 100-6.934 3.467 3.467 0 000 6.934z" fill="#F7F7F7"/><path d="M9.75 2.167L7.768 4.333H4.333A2.173 2.173 0 002.167 6.5v13c0 1.192.975 2.167 2.166 2.167h17.334a2.173 2.173 0 002.166-2.167v-13a2.173 2.173 0 00-2.166-2.167h-3.434L16.25 2.167h-6.5zM13 18.417A5.419 5.419 0 017.583 13 5.419 5.419 0 0113 7.583 5.419 5.419 0 0118.417 13 5.419 5.419 0 0113 18.417z" fill="#F7F7F7"/></svg><svg fill="none" viewBox="0 0 24 24" id="baseline-search-24px1" xmlns="http://www.w3.org/2000/svg"><path d="M15.5 14h-.79l-.28-.27A6.471 6.471 0 0016 9.5 6.5 6.5 0 109.5 16c1.61 0 3.09-.59 4.23-1.57l.27.28v.79l5 4.99L20.49 19l-4.99-5zm-6 0C7.01 14 5 11.99 5 9.5S7.01 5 9.5 5 14 7.01 14 9.5 11.99 14 9.5 14z" fill="#F7F7F7"/></svg><svg fill="none" viewBox="0 0 24 24" id="close" xmlns="http://www.w3.org/2000/svg"><path fill-rule="evenodd" clip-rule="evenodd" d="M18 7.2L16.8 6 12 10.8 7.2 6 6 7.2l4.8 4.8L6 16.8 7.2 18l4.8-4.8 4.8 4.8 1.2-1.2-4.8-4.8L18 7.2z" fill="#ABB4BD"/></svg><svg fill="none" viewBox="0 0 24 24" id="icon_pensil" xmlns="http://www.w3.org/2000/svg"><path fill-rule="evenodd" clip-rule="evenodd" d="M6 16.292V19h2.708l7.987-7.987-2.708-2.708L6 16.292zm12.789-7.373a.72.72 0 000-1.018l-1.69-1.69a.72.72 0 00-1.018 0l-1.322 1.322 2.708 2.708 1.322-1.322z" fill="#fff"/></svg><svg fill="none" viewBox="0 0 44 44" id="inactive_add" xmlns="http://www.w3.org/2000/svg"><g filter="url(#kfilter0_d_322:103)"><circle cx="22" cy="18" r="18" fill="#F7F7F7"/></g><path fill-rule="evenodd" clip-rule="evenodd" d="M21 11v6h-6v2h6v6h2v-6h6v-2h-6v-6h-2z" fill="#1E1F28"/><defs><filter id="kfilter0_d_322:103" x="0" y="0" width="44" height="44" filterUnits="userSpaceOnUse" color-interpolation-filters="sRGB"><feFlood flood-opacity="0" result="BackgroundImageFix"/><feColorMatrix in="SourceAlpha" values="0 0 0 0 0 0 0 0 0 0 0 0 0 0 0 0 0 0 127 0" result="hardAlpha"/><feOffset dy="4"/><feGaussianBlur stdDeviation="2"/><feColorMatrix values="0 0 0 0 0 0 0 0 0 0 0 0 0 0 0 0 0 0 0.22 0"/><feBlend in2="BackgroundImageFix" result="effect1_dropShadow_322:103"/><feBlend in="SourceGraphic" in2="effect1_dropShadow_322:103" result="shape"/></filter></defs></svg><svg fill="none" viewBox="0 0 36 36" id="inactive_arrow_button" xmlns="http://www.w3.org/2000/svg"><circle cx="18" cy="18" r="18" fill="#ABB4BD"/><path fill-rule="evenodd" clip-rule="evenodd" d="M18 12l-1.05 1.05 4.2 4.2H12v1.5h9.15l-4.2 4.2L18 24l6-6-6-6z" fill="#2A2C36"/></svg><svg fill="none" viewBox="0 0 44 44" id="inactive_bag_icon" xmlns="http://www.w3.org/2000/svg"><g filter="url(#mfilter0_d_283:3572)"><circle cx="22" cy="18" r="18" fill="#EF3651"/></g><path d="M28.375 23.048l-1.042-9.8c0-.616-.477-1.115-1.066-1.115h-8.534c-.589 0-1.066.5-1.066 1.116l-1.042 9.8a1.185 1.185 0 00-.025.236c0 .616.477 1.115 1.067 1.115h10.666c.59 0 1.067-.499 1.067-1.115 0-.082-.01-.16-.025-.237zm-3.708-8.178v.609c0 1.537-1.197 2.788-2.667 2.788-1.47 0-2.667-1.251-2.667-2.788v-.61a.832.832 0 01-.533-.784c0-.462.358-.837.8-.837.442 0 .8.375.8.837v1.394c0 .922.718 1.672 1.6 1.672.882 0 1.6-.75 1.6-1.672v-1.394c0-.462.358-.837.8-.837.442 0 .8.375.8.837 0 .363-.223.67-.533.785z" fill="#F7F7F7"/><defs><filter id="mfilter0_d_283:3572" x="0" y="0" width="44" height="44" filterUnits="userSpaceOnUse" color-interpolation-filters="sRGB"><feFlood flood-opacity="0" result="BackgroundImageFix"/><feColorMatrix in="SourceAlpha" values="0 0 0 0 0 0 0 0 0 0 0 0 0 0 0 0 0 0 127 0" result="hardAlpha"/><feOffset dy="4"/><feGaussianBlur stdDeviation="2"/><feColorMatrix values="0 0 0 0 0.858824 0 0 0 0 0.188235 0 0 0 0 0.133333 0 0 0 0.16 0"/><feBlend in2="BackgroundImageFix" result="effect1_dropShadow_283:3572"/><feBlend in="SourceGraphic" in2="effect1_dropShadow_283:3572" result="shape"/></filter></defs></svg><svg fill="none" viewBox="0 0 52 52" id="inactive_icon_favorites_" xmlns="http://www.w3.org/2000/svg"><g filter="url(#nfilter0_d_25:192)"><circle cx="26" cy="25" r="18" fill="#2A2C36"/></g><path fill-rule="evenodd" clip-rule="evenodd" d="M28.482 19c-1.138 0-2.23.53-2.942 1.367A3.916 3.916 0 0022.596 19 3.562 3.562 0 0019 22.597c0 2.472 2.223 4.486 5.591 7.546l.948.857.949-.863c3.368-3.054 5.591-5.068 5.591-7.54A3.562 3.562 0 0028.482 19zm-2.877 10.169l-.066.065-.065-.065c-3.113-2.819-5.166-4.682-5.166-6.572 0-1.308.98-2.29 2.289-2.29 1.007 0 1.988.648 2.334 1.544h1.223c.34-.896 1.321-1.543 2.328-1.543 1.308 0 2.29.98 2.29 2.289 0 1.89-2.054 3.753-5.167 6.572z" fill="#ABB4BD"/><defs><filter id="nfilter0_d_25:192" x="0" y="0" width="52" height="52" filterUnits="userSpaceOnUse" color-interpolation-filters="sRGB"><feFlood flood-opacity="0" result="BackgroundImageFix"/><feColorMatrix in="SourceAlpha" values="0 0 0 0 0 0 0 0 0 0 0 0 0 0 0 0 0 0 127 0" result="hardAlpha"/><feOffset dy="1"/><feGaussianBlur stdDeviation="4"/><feColorMatrix values="0 0 0 0 0.0416667 0 0 0 0 0.0416667 0 0 0 0 0.0416667 0 0 0 0.26 0"/><feBlend in2="BackgroundImageFix" result="effect1_dropShadow_25:192"/><feBlend in="SourceGraphic" in2="effect1_dropShadow_25:192" result="shape"/></filter></defs></svg><svg fill="none" viewBox="0 0 24 24" id="outline-check-24pxcheck" xmlns="http://www.w3.org/2000/svg"><path d="M9.038 16.623l-4.504-4.975L3 13.33 9.038 20 22 5.682 20.477 4 9.038 16.623z" fill="#55D85A"/></svg><svg fill="none" viewBox="0 0 24 24" id="outline-close-24pxcross" xmlns="http://www.w3.org/2000/svg"><path d="M19 6.41L17.59 5 12 10.59 6.41 5 5 6.41 10.59 12 5 17.59 6.41 19 12 13.41 17.59 19 19 17.59 13.41 12 19 6.41z" fill="#FF2424"/></svg><svg fill="none" viewBox="0 0 44 44" id="pressed_add" xmlns="http://www.w3.org/2000/svg"><g filter="url(#qfilter0_d_322:104)"><circle cx="22" cy="18" r="18" fill="#2A2C36"/></g><path fill-rule="evenodd" clip-rule="evenodd" d="M21 11v6h-6v2h6v6h2v-6h6v-2h-6v-6h-2z" fill="#F7F7F7"/><defs><filter id="qfilter0_d_322:104" x="0" y="0" width="44" height="44" filterUnits="userSpaceOnUse" color-interpolation-filters="sRGB"><feFlood flood-opacity="0" result="BackgroundImageFix"/><feColorMatrix in="SourceAlpha" values="0 0 0 0 0 0 0 0 0 0 0 0 0 0 0 0 0 0 127 0" result="hardAlpha"/><feOffset dy="4"/><feGaussianBlur stdDeviation="2"/><feColorMatrix values="0 0 0 0 0 0 0 0 0 0 0 0 0 0 0 0 0 0 0.01 0"/><feBlend in2="BackgroundImageFix" result="effect1_dropShadow_322:104"/><feBlend in="SourceGraphic" in2="effect1_dropShadow_322:104" result="shape"/></filter></defs></svg><svg fill="none" viewBox="0 0 36 36" id="pressed_bag_icon" xmlns="http://www.w3.org/2000/svg"><circle opacity=".9" cx="18" cy="18" r="18" fill="#EF3651"/><path d="M24.375 23.048l-1.042-9.8c0-.616-.477-1.115-1.066-1.115h-8.534c-.589 0-1.066.5-1.066 1.116l-1.042 9.8a1.185 1.185 0 00-.025.236c0 .616.477 1.115 1.067 1.115h10.666c.59 0 1.067-.499 1.067-1.115 0-.082-.01-.16-.025-.237zm-3.708-8.178v.609c0 1.537-1.197 2.788-2.667 2.788-1.47 0-2.667-1.251-2.667-2.788v-.61a.832.832 0 01-.533-.784c0-.462.358-.837.8-.837.442 0 .8.375.8.837v1.394c0 .922.718 1.672 1.6 1.672.882 0 1.6-.75 1.6-1.672v-1.394c0-.462.358-.837.8-.837.442 0 .8.375.8.837 0 .363-.223.67-.533.785z" fill="#F7F7F7"/></svg><svg fill="none" viewBox="0 0 36 36" id="pressed_icon_favorites_pressed" xmlns="http://www.w3.org/2000/svg"><circle cx="18" cy="18" r="18" fill="#EF3651"/><path fill-rule="evenodd" clip-rule="evenodd" d="M17.54 24l-.949-.863C13.223 20.083 11 18.069 11 15.597A3.562 3.562 0 0114.597 12c1.138 0 2.23.53 2.943 1.367A3.916 3.916 0 0120.482 12a3.562 3.562 0 013.597 3.597c0 2.472-2.223 4.486-5.591 7.546L17.54 24z" fill="#2A2C36"/></svg></svg>