<?xml version="1.0" encoding="utf-8"?><svg viewBox="0 0 26 26" xmlns="http://www.w3.org/2000/svg" xmlns:xlink="http://www.w3.org/1999/xlink"><style>:root>svg{display:none}:root>svg:target{display:block}</style><svg fill="none" viewBox="0 0 26 26" id="baseline-photo_camera-24px2" xmlns="http://www.w3.org/2000/svg"><path d="M13 16.467a3.467 3.467 0 100-6.934 3.467 3.467 0 000 6.934z" fill="#F7F7F7"/><path d="M9.75 2.167L7.768 4.333H4.333A2.173 2.173 0 002.167 6.5v13c0 1.192.975 2.167 2.166 2.167h17.334a2.173 2.173 0 002.166-2.167v-13a2.173 2.173 0 00-2.166-2.167h-3.434L16.25 2.167h-6.5zM13 18.417A5.419 5.419 0 017.583 13 5.419 5.419 0 0113 7.583 5.419 5.419 0 0118.417 13 5.419 5.419 0 0113 18.417z" fill="#F7F7F7"/></svg><svg fill="none" viewBox="0 0 24 24" id="baseline-search-24px1" xmlns="http://www.w3.org/2000/svg"><path d="M15.5 14h-.79l-.28-.27A6.471 6.471 0 0016 9.5 6.5 6.5 0 109.5 16c1.61 0 3.09-.59 4.23-1.57l.27.28v.79l5 4.99L20.49 19l-4.99-5zm-6 0C7.01 14 5 11.99 5 9.5S7.01 5 9.5 5 14 7.01 14 9.5 11.99 14 9.5 14z" fill="#F7F7F7"/></svg></svg>