<svg width="52" height="52" viewBox="0 0 52 52" fill="none" xmlns="http://www.w3.org/2000/svg">
<g filter="url(#filter0_d_25:192)">
<circle cx="26" cy="25" r="18" fill="#2A2C36"/>
</g>
<path fill-rule="evenodd" clip-rule="evenodd" d="M28.4823 19C27.3444 19 26.2523 19.5297 25.5395 20.3668C24.8267 19.5297 23.7346 19 22.5967 19C20.5826 19 19 20.5826 19 22.5967C19 25.0687 21.2234 27.0828 24.5913 30.1433L25.5395 31L26.4877 30.1368C29.8556 27.0828 32.079 25.0687 32.079 22.5967C32.079 20.5826 30.4965 19 28.4823 19ZM25.6049 29.1689L25.5395 29.2343L25.4741 29.1689C22.3613 26.3504 20.3079 24.4866 20.3079 22.5967C20.3079 21.2888 21.2888 20.3079 22.5967 20.3079C23.6038 20.3079 24.5847 20.9553 24.9313 21.8512H26.1542C26.4943 20.9553 27.4752 20.3079 28.4823 20.3079C29.7902 20.3079 30.7711 21.2888 30.7711 22.5967C30.7711 24.4866 28.7177 26.3504 25.6049 29.1689Z" fill="#ABB4BD"/>
<defs>
<filter id="filter0_d_25:192" x="0" y="0" width="52" height="52" filterUnits="userSpaceOnUse" color-interpolation-filters="sRGB">
<feFlood flood-opacity="0" result="BackgroundImageFix"/>
<feColorMatrix in="SourceAlpha" type="matrix" values="0 0 0 0 0 0 0 0 0 0 0 0 0 0 0 0 0 0 127 0" result="hardAlpha"/>
<feOffset dy="1"/>
<feGaussianBlur stdDeviation="4"/>
<feColorMatrix type="matrix" values="0 0 0 0 0.0416667 0 0 0 0 0.0416667 0 0 0 0 0.0416667 0 0 0 0.26 0"/>
<feBlend mode="normal" in2="BackgroundImageFix" result="effect1_dropShadow_25:192"/>
<feBlend mode="normal" in="SourceGraphic" in2="effect1_dropShadow_25:192" result="shape"/>
</filter>
</defs>
</svg>
